<?xml version="1.0" encoding="UTF-8" standalone="no"?>
<svg
   width="30"
   height="30"
   viewBox="0 0 30 30"
   version="1.1"
   id="svg1"
   sodipodi:docname="pixel-dragon-right.svg"
   inkscape:version="1.4 (e7c3feb100, 2024-10-09)"
   xmlns:inkscape="http://www.inkscape.org/namespaces/inkscape"
   xmlns:sodipodi="http://sodipodi.sourceforge.net/DTD/sodipodi-0.dtd"
   xmlns="http://www.w3.org/2000/svg"
   xmlns:svg="http://www.w3.org/2000/svg">
  <defs
     id="defs1" />
  <sodipodi:namedview
     id="namedview1"
     pagecolor="#505050"
     bordercolor="#ffffff"
     borderopacity="1"
     inkscape:showpageshadow="0"
     inkscape:pageopacity="0"
     inkscape:pagecheckerboard="1"
     inkscape:deskcolor="#505050"
     inkscape:zoom="18.314066"
     inkscape:cx="15.589111"
     inkscape:cy="12.149132"
     inkscape:window-width="1920"
     inkscape:window-height="1008"
     inkscape:window-x="0"
     inkscape:window-y="0"
     inkscape:window-maximized="1"
     inkscape:current-layer="svg1" />
  <g
     inkscape:groupmode="layer"
     id="layer2-4"
     inkscape:label="back-pixels"
     inkscape:highlight-color="#840729"
     style="display:inline"
     transform="translate(-3,-1)">
    <rect
       style="fill:#cf406b;fill-opacity:1;stroke-width:0.5;stroke-linecap:square;paint-order:markers fill stroke"
       id="rect53"
       width="1.4999999"
       height="4.5000005"
       x="-7.5"
       y="8.5"
       inkscape:label="pink"
       transform="scale(-1,1)" />
    <rect
       style="display:inline;fill:#cf406b;fill-opacity:1;stroke-width:0.499999;stroke-linecap:square;paint-order:markers fill stroke"
       id="rect53-4"
       width="2.9999998"
       height="1.000001"
       x="-10"
       y="12.5"
       inkscape:label="pink"
       transform="scale(-1,1)" />
    <path
       d="m 25,6 v 0.5 h 1 v 2 H 24 V 7 H 23.724609 V 6 Z"
       style="display:inline;fill:#cf406b;stroke-width:0.499999;stroke-linecap:square;paint-order:markers fill stroke"
       id="path78" />
    <g
       inkscape:groupmode="layer"
       id="layer3"
       inkscape:label="green"
       inkscape:highlight-color="#3df321">
      <path
         d="M 25.0625,8.515625 V 9.6875 H 26.5 V 15 H 28 v 5 h 0.138672 v 2 H 28 v 0.984375 H 27 V 25 h -2 v 2 H 22 V 25 H 17 V 22.984375 H 8 V 17 H 7 V 16 H 5 V 15 H 4 v -2 h 9 v 2 h 2.570313 V 8.515625 Z"
         style="fill:#97d442;stroke-width:0.5;stroke-linecap:square;paint-order:markers fill stroke"
         id="path63" />
    </g>
    <g
       inkscape:groupmode="layer"
       id="layer4"
       inkscape:label="dark green"
       inkscape:highlight-color="#3b8d06"
       style="display:inline">
      <rect
         style="fill:#42941f;fill-opacity:1;stroke-width:0.5;stroke-linecap:square;paint-order:markers fill stroke"
         id="rect115"
         width="1.015625"
         height="1"
         x="-26.507812"
         y="16"
         transform="scale(-1,1)" />
      <rect
         style="display:inline;fill:#42941f;fill-opacity:1;stroke-width:0.5;stroke-linecap:square;paint-order:markers fill stroke"
         id="rect115-3"
         width="1.015625"
         height="1"
         x="-26.507812"
         y="14"
         transform="scale(-1,1)" />
      <path
         d="M 19.007812,13.5 V 15 H 18 v 3.25 H 16 V 18 h -1 v -1 h 1 v -1 h -1 v -1 h 1 v -0.25 h 1.382813 V 13.5 Z"
         style="display:inline;fill:#42941f;stroke-width:0.5;stroke-linecap:square;paint-order:markers fill stroke"
         id="path115" />
    </g>
    <g
       inkscape:groupmode="layer"
       id="layer5"
       inkscape:label="white"
       inkscape:highlight-color="#fddee6"
       style="display:inline">
      <rect
         style="fill:#f5f5f5;fill-opacity:1;stroke-width:0.5;stroke-linecap:square;paint-order:markers fill stroke"
         id="rect57"
         width="3.5"
         height="5"
         x="-26.5"
         y="12.5"
         transform="scale(-1,1)" />
      <rect
         style="fill:#f5f5f5;fill-opacity:1;stroke-width:0.5;stroke-linecap:square;paint-order:markers fill stroke"
         id="rect57-2"
         width="3.6562488"
         height="4.3789062"
         x="-21.328125"
         y="13.498046"
         transform="scale(-1,1)" />
    </g>
    <g
       inkscape:groupmode="layer"
       id="layer6"
       inkscape:label="light hair"
       inkscape:highlight-color="#f8c777"
       style="display:inline">
      <path
         d="m 18,5 v 2 h 1 v 2 2 h -1 v 1 h -3.962891 v 0.605469 h 0.08594 V 13 H 14.5 17 v 1 h -1 v 1 H 13 V 13.257813 H 12 V 14 H 10 V 13 H 9 v -3 h 1 V 8 h 1 V 7 h 2 V 6 h 2 V 5 Z"
         style="fill:#e3d9af;stroke-width:0.5;stroke-linecap:square;paint-order:markers fill stroke"
         id="path75" />
      <path
         d="m 22,5 v 1 h 2 v 1 h 1 v 2 h 2 v 1 h 2 v 2 h 1 v 2 1 H 27 V 14 H 26 V 13 H 24 V 12 H 23 V 10 H 21 V 7 H 19 V 6 h 1 V 5 Z"
         style="display:inline;fill:#e3d9af;stroke-width:0.5;stroke-linecap:square;paint-order:markers fill stroke"
         id="path74" />
      <path
         d="m 9,17 v 1 h 1 v 3.5 H 8 V 20.816406 H 7.240234 V 20 H 7.5 v -3 z"
         style="fill:#e3d9af;stroke-width:0.5;stroke-linecap:square;paint-order:markers fill stroke"
         id="path95" />
    </g>
    <g
       inkscape:groupmode="layer"
       id="layer7"
       inkscape:label="bright hair"
       inkscape:highlight-color="#fbf3bd">
      <path
         d="M 15,7.8007812 V 8 h 1 v 2 h -1 v 0.5 H 14 V 10 H 13.251953 V 7.8007812 Z"
         style="fill:#f7f0c8;stroke-width:0.5;stroke-linecap:square;paint-order:markers fill stroke"
         id="path77" />
    </g>
    <g
       inkscape:groupmode="layer"
       id="layer8"
       inkscape:label="mid hair"
       inkscape:highlight-color="#cf7f71"
       style="display:inline">
      <path
         d="M 24,10.5 V 11 12 H 23 22.730469 V 11 H 23 v -0.5 z"
         style="fill:#e0c199;stroke-width:0.5;stroke-linecap:square;paint-order:markers fill stroke"
         id="path93" />
      <path
         d="m 9.5,10 v 1.722656 H 10 V 11 h 1 V 11.722656 13 14 H 10 V 13 H 9.5 9 8.5 v -3 z"
         style="fill:#e0c199;stroke-width:0.5;stroke-linecap:square;paint-order:markers fill stroke"
         id="path92" />
      <path
         d="m 16,12.5 v 1 h -1 v -1 z"
         style="fill:#e0c199;stroke-width:0.5;stroke-linecap:square;paint-order:markers fill stroke"
         id="path96" />
      <path
         d="M 30,14.445313 V 17 h -1 v 2.03125 h 1 V 20 h -1 v 0.5 H 26.976562 V 18 h -0.429687 v -1 h 0.429687 v -0.804688 h 1.726563 v -1.749999 z"
         style="fill:#e0c199;stroke-width:0.5;stroke-linecap:square;paint-order:markers fill stroke"
         id="path88" />
      <path
         d="m 13,18 v 5 h -1 v 1 H 9.5 v 0.5 H 7 V 23 H 8 V 22 H 8.5 V 21 H 10 v -0.65625 h 1.1875 V 21 H 11.5 v -3 z"
         style="fill:#e0c199;stroke-width:0.5;stroke-linecap:square;paint-order:markers fill stroke"
         id="path87" />
      <rect
         style="fill:#e0c199;fill-opacity:1;stroke-width:0.5;stroke-linecap:square;paint-order:markers fill stroke"
         id="rect87"
         width="1.4375"
         height="3.390625"
         x="-8.2265625"
         y="16.796875"
         transform="scale(-1,1)" />
    </g>
    <g
       inkscape:groupmode="layer"
       id="layer10"
       inkscape:label="dark hair"
       inkscape:highlight-color="#ba5127">
      <rect
         style="fill:#e0a08b;fill-opacity:1;stroke-width:0.5;stroke-linecap:square;paint-order:markers fill stroke"
         id="rect96"
         width="1.5"
         height="1"
         x="-19"
         y="5"
         transform="scale(-1,1)" />
      <path
         d="M 21.34375,7 V 8 H 21 V 9 H 20 V 8 H 19.65625 V 7 H 20 21 Z"
         style="fill:#e0a08b;stroke-width:0.5;stroke-linecap:square;paint-order:markers fill stroke"
         id="path101" />
      <rect
         style="fill:#e0a08b;fill-opacity:1;stroke-width:0.5;stroke-linecap:square;paint-order:markers fill stroke"
         id="rect88"
         width="0.71875"
         height="1.9999981"
         x="-28.359375"
         y="20.000002"
         transform="scale(-1,1)" />
      <rect
         style="display:inline;fill:#e0a08b;fill-opacity:1;stroke-width:0.5;stroke-linecap:square;paint-order:markers fill stroke"
         id="rect88-6"
         width="1.21875"
         height="1.9999981"
         x="-28.21875"
         y="22"
         transform="scale(-1,1)" />
      <rect
         style="fill:#e0a08b;fill-opacity:1;stroke-width:0.5;stroke-linecap:square;paint-order:markers fill stroke"
         id="rect89"
         width="1.5"
         height="1"
         x="-28"
         y="24"
         transform="scale(-1,1)" />
      <rect
         style="fill:#e0a08b;fill-opacity:1;stroke-width:0.5;stroke-linecap:square;paint-order:markers fill stroke"
         id="rect90"
         width="1.5"
         height="1"
         x="-28"
         y="23"
         transform="scale(-1,1)" />
      <rect
         style="fill:#e0a08b;fill-opacity:1;stroke-width:0.5;stroke-linecap:square;paint-order:markers fill stroke"
         id="rect91"
         width="1.0270489"
         height="0.984375"
         x="-13.527048"
         y="22"
         transform="scale(-1,1)" />
    </g>
    <g
       inkscape:groupmode="layer"
       id="layer11"
       inkscape:label="accents"
       inkscape:highlight-color="#6a0784">
      <rect
         style="fill:#f57d9b;fill-opacity:1;stroke-width:0.500001;stroke-linecap:square;paint-order:markers fill stroke"
         id="rect102"
         width="1"
         height="3.7109375"
         x="-7"
         y="18.644531"
         transform="scale(-1,1)" />
      <rect
         style="fill:#f57d9b;fill-opacity:1;stroke-width:0.5;stroke-linecap:square;paint-order:markers fill stroke"
         id="rect103"
         width="2.5"
         height="2"
         x="-7.5"
         y="20"
         transform="scale(-1,1)" />
      <rect
         style="fill:#c23275;fill-opacity:1;stroke-width:0.5;stroke-linecap:square;paint-order:markers fill stroke"
         id="rect101"
         width="1"
         height="1.5"
         x="-8"
         y="20.5"
         transform="scale(-1,1)" />
      <rect
         style="fill:#f7f0c8;fill-opacity:1;stroke-width:0.5;stroke-linecap:square;paint-order:markers fill stroke"
         id="rect104"
         width="1"
         height="3.5546875"
         x="-7"
         y="14.722656"
         transform="scale(-1,1)" />
      <path
         d="m 15,22 v 0.789062 h 2.21875 V 23.75 H 20 V 25 h 0.78125 V 24.5 H 22 V 25 h 1 v 1 h 0.195312 v 1 H 22 V 26.15625 H 20 V 26 h -3 v -1 h -2 v -1 h -2 v -2 z"
         style="fill:#ede551;stroke-width:0.5;stroke-linecap:square;paint-order:markers fill stroke"
         id="path121" />
      <rect
         style="fill:#cf406b;fill-opacity:1;stroke-width:0.500002;stroke-linecap:square;paint-order:markers fill stroke"
         id="rect116"
         width="2.328125"
         height="1.7482738"
         x="-21.328125"
         y="17"
         transform="scale(-1,1)" />
      <rect
         style="fill:#cf406b;fill-opacity:1;stroke-width:0.5;stroke-linecap:square;paint-order:markers fill stroke"
         id="rect117"
         width="1.0606601"
         height="0.95299101"
         x="-21.530331"
         y="15.047009"
         transform="scale(-1,1)" />
    </g>
  </g>
  <g
     inkscape:groupmode="layer"
     id="layer1"
     inkscape:label="face-pixels"
     style="display:inline"
     transform="translate(-3,-1)">
    <rect
       style="fill:#e0a08b;fill-opacity:1;stroke:none;stroke-linecap:square;stroke-linejoin:miter;stroke-dasharray:none;stroke-opacity:1;paint-order:markers fill stroke"
       x="-19"
       y="5"
       width="1"
       height="1"
       id="15-5-1"
       transform="scale(-1,1)" />
    <rect
       style="fill:#e0c199;fill-opacity:1;stroke:none;stroke-linecap:square;stroke-linejoin:miter;stroke-dasharray:none;stroke-opacity:1;paint-order:markers fill stroke"
       x="-18"
       y="5"
       width="1"
       height="1"
       id="16-5-8"
       transform="scale(-1,1)" />
    <rect
       style="fill:#e0c199;fill-opacity:1;stroke:none;stroke-linecap:square;stroke-linejoin:miter;stroke-dasharray:none;stroke-opacity:1;paint-order:markers fill stroke"
       x="-16"
       y="5"
       width="1"
       height="1"
       id="18-5-5"
       transform="scale(-1,1)" />
    <rect
       style="fill:#e0c199;fill-opacity:1;stroke:none;stroke-linecap:square;stroke-linejoin:miter;stroke-dasharray:none;stroke-opacity:1;paint-order:markers fill stroke"
       x="-20"
       y="6"
       width="1"
       height="1"
       id="14-6-9"
       transform="scale(-1,1)" />
    <rect
       style="fill:#e0a08b;fill-opacity:1;stroke:none;stroke-linecap:square;stroke-linejoin:miter;stroke-dasharray:none;stroke-opacity:1;paint-order:markers fill stroke"
       x="-21"
       y="7"
       width="1"
       height="1"
       id="13-7-7"
       transform="scale(-1,1)" />
    <rect
       style="fill:#e3d9af;fill-opacity:1;stroke:none;stroke-linecap:square;stroke-linejoin:miter;stroke-dasharray:none;stroke-opacity:1;paint-order:markers fill stroke"
       x="-13"
       y="7"
       width="1"
       height="1"
       id="21-7-5"
       transform="scale(-1,1)" />
    <rect
       style="fill:#f7f0c8;fill-opacity:1;stroke:none;stroke-linecap:square;stroke-linejoin:miter;stroke-dasharray:none;stroke-opacity:1;paint-order:markers fill stroke"
       x="-12"
       y="7"
       width="1"
       height="1"
       id="22-7-3"
       transform="scale(-1,1)" />
    <rect
       style="fill:#e0c199;fill-opacity:1;stroke:none;stroke-linecap:square;stroke-linejoin:miter;stroke-dasharray:none;stroke-opacity:1;paint-order:markers fill stroke"
       x="-21"
       y="8"
       width="1"
       height="1"
       id="13-8-8"
       transform="scale(-1,1)" />
    <path
       d="m 18,8 v 1 h 1 v 1 h -1 -1 v 1 H 16 V 10 H 15 V 9 h 1 1 V 8 Z"
       style="fill:#f7f0c8;stroke-linecap:square;paint-order:markers fill stroke"
       id="path46" />
    <path
       d="m 16,8 v 1 h -1 v 1 H 14 V 9 8 h 1 z"
       style="fill:#cf406b;stroke-linecap:square;paint-order:markers fill stroke"
       id="path36" />
    <path
       d="m 15,7 v 1 h -1 v 1 1 H 13 12 V 9 8 h 1 V 7 h 1 z"
       style="fill:#f7f0c8;stroke-linecap:square;paint-order:markers fill stroke"
       id="path47" />
    <rect
       style="fill:#97d442;fill-opacity:1;stroke:none;stroke-linecap:square;stroke-linejoin:miter;stroke-dasharray:none;stroke-opacity:1;paint-order:markers fill stroke"
       x="-21"
       y="9"
       width="1"
       height="1"
       id="13-9-8"
       transform="scale(-1,1)" />
    <path
       d="m 17,5 v 1 h 1 1 v 1 h 1 v 1 1 1 H 19 V 9 H 18 V 8 H 17 V 9 H 16 V 8 H 15 V 7 H 14 13 V 6 h 1 1 1 V 5 Z"
       style="fill:#e3d9af;stroke-linecap:square;paint-order:markers fill stroke"
       id="path45" />
    <rect
       style="fill:#e0c199;fill-opacity:1;stroke:none;stroke-linecap:square;stroke-linejoin:miter;stroke-dasharray:none;stroke-opacity:1;paint-order:markers fill stroke"
       x="-11"
       y="9"
       width="1"
       height="1"
       id="23-9-3"
       transform="scale(-1,1)" />
    <path
       d="m 7,9 v 1 1 1 1 H 6 V 12 11 10 9 Z"
       style="fill:#ad2860;stroke-linecap:square;paint-order:markers fill stroke"
       id="path51" />
    <rect
       style="fill:#97d442;fill-opacity:1;stroke:none;stroke-linecap:square;stroke-linejoin:miter;stroke-dasharray:none;stroke-opacity:1;paint-order:markers fill stroke"
       x="-20"
       y="10"
       width="1"
       height="1"
       id="14-10-1"
       transform="scale(-1,1)" />
    <rect
       style="fill:#f7f0c8;fill-opacity:1;stroke:none;stroke-linecap:square;stroke-linejoin:miter;stroke-dasharray:none;stroke-opacity:1;paint-order:markers fill stroke"
       x="-15"
       y="10"
       width="1"
       height="1"
       id="19-10-8"
       transform="scale(-1,1)" />
    <path
       d="m 12,8 v 1 1 h 1 1 v 1 h -1 v 1 h -1 v 1 1 h -1 v -1 -1 -1 h -1 v -1 h 1 V 9 H 10 V 8 h 1 z"
       style="fill:#e3d9af;stroke-linecap:square;paint-order:markers fill stroke"
       id="path48" />
    <path
       d="m 22,10 v 1 h 1 v 1 1 h -1 -1 -1 v -1 h -1 v -1 h 1 v -1 h 1 z"
       style="fill:#c3eb54;stroke-linecap:square;paint-order:markers fill stroke"
       id="path21" />
    <rect
       style="fill:#e0c199;fill-opacity:1;stroke:none;stroke-linecap:square;stroke-linejoin:miter;stroke-dasharray:none;stroke-opacity:1;paint-order:markers fill stroke"
       x="-14"
       y="11"
       width="1"
       height="1"
       id="20-11-9"
       transform="scale(-1,1)" />
    <path
       d="m 10,10 v 1 h 1 v 1 1 H 10 V 12 H 9 v -1 -1 z"
       style="fill:#e0c199;stroke-linecap:square;paint-order:markers fill stroke"
       id="path52" />
    <path
       d="m 19,11 v 1 h 1 v 1 h 1 1 1 v -1 h 1 1 v 1 h -1 v 1 h -1 v 1 h -1 -1 v -1 h -1 -1 -1 v 1 h -1 -1 v -1 h 1 v -1 -1 h 1 v -1 z"
       style="fill:#97d442;stroke-linecap:square;paint-order:markers fill stroke"
       id="path98" />
    <path
       d="m 13,12 v 1 1 h -1 v -1 -1 z"
       style="fill:#e0c199;stroke-linecap:square;paint-order:markers fill stroke"
       id="path53" />
    <path
       d="m 8,6 v 1 1 1 1 h 1 v 1 1 h 1 v 1 H 9 8 7 V 12 11 10 9 H 6 V 8 H 7 V 7 6 Z"
       style="fill:#cf406b;stroke-linecap:square;paint-order:markers fill stroke"
       id="path50" />
    <path
       d="m 16,13 v 1 1 1 h -1 v 1 1 h -1 v -1 -1 -1 h 1 v -1 -1 z"
       style="fill:#e0c199;stroke-linecap:square;paint-order:markers fill stroke"
       id="path35" />
    <rect
       style="fill:#cf406b;fill-opacity:1;stroke:none;stroke-linecap:square;stroke-linejoin:miter;stroke-dasharray:none;stroke-opacity:1;paint-order:markers fill stroke"
       x="-11"
       y="13"
       width="1"
       height="1"
       id="23-13-6"
       transform="scale(-1,1)" />
    <path
       d="m 18,15 v 1 1 1 h -1 -1 v -1 h 1 v -1 h -1 v -1 h 1 z"
       style="display:inline;fill:#42941f;stroke-linecap:square;paint-order:markers fill stroke"
       id="path99" />
    <path
       d="m 10,13 v 1 h 1 1 1 v 1 h 1 v 1 H 13 12 V 15 H 11 10 9 V 14 H 8 7 6 5 v 1 H 4 v -1 -1 h 1 1 1 1 1 z"
       style="fill:#97d442;stroke-linecap:square;paint-order:markers fill stroke"
       id="path105" />
    <path
       d="m 7,15 v 1 1 1 H 6 v -1 -1 -1 z"
       style="fill:#f7f0c8;stroke-linecap:square;paint-order:markers fill stroke"
       id="path29" />
    <rect
       style="fill:#97d442;fill-opacity:1;stroke:none;stroke-linecap:square;stroke-linejoin:miter;stroke-dasharray:none;stroke-opacity:1;paint-order:markers fill stroke"
       x="-6"
       y="15"
       width="1"
       height="1"
       id="28-15"
       transform="scale(-1,1)" />
    <rect
       style="fill:#42941f;fill-opacity:1;stroke:none;stroke-linecap:square;stroke-linejoin:miter;stroke-dasharray:none;stroke-opacity:1;paint-order:markers fill stroke"
       x="-27"
       y="16"
       width="1"
       height="1"
       id="7-16-4"
       transform="scale(-1,1)" />
    <path
       d="m 9,14 v 1 h 1 1 1 v 1 h 1 1 v 1 h -1 -1 -1 -1 v 1 H 9 V 17 16 H 8 7 V 15 H 6 5 v -1 h 1 1 1 z"
       style="fill:#6aba30;stroke-linecap:square;paint-order:markers fill stroke"
       id="path104" />
    <rect
       style="fill:#db517b;fill-opacity:1;stroke:none;stroke-linecap:square;stroke-linejoin:miter;stroke-dasharray:none;stroke-opacity:1;paint-order:markers fill stroke"
       x="-9"
       y="16"
       width="1"
       height="1"
       id="25-16-3"
       transform="scale(-1,1)" />
    <rect
       style="fill:#97d442;fill-opacity:1;stroke:none;stroke-linecap:square;stroke-linejoin:miter;stroke-dasharray:none;stroke-opacity:1;paint-order:markers fill stroke"
       x="-8"
       y="16"
       width="1"
       height="1"
       id="26-16"
       transform="scale(-1,1)" />
    <rect
       style="fill:#6aba30;fill-opacity:1;stroke:none;stroke-linecap:square;stroke-linejoin:miter;stroke-dasharray:none;stroke-opacity:1;paint-order:markers fill stroke"
       x="-26"
       y="17"
       width="1"
       height="1"
       id="8-17-3"
       transform="scale(-1,1)" />
    <path
       d="m 14,17 v 1 h -1 -1 -1 v -1 h 1 1 z"
       style="fill:#97d442;stroke-linecap:square;paint-order:markers fill stroke"
       id="path27" />
    <rect
       style="fill:#c23275;fill-opacity:1;stroke:none;stroke-linecap:square;stroke-linejoin:miter;stroke-dasharray:none;stroke-opacity:1;paint-order:markers fill stroke"
       x="-11"
       y="17"
       width="1"
       height="1"
       id="23-17-3"
       transform="scale(-1,1)" />
    <rect
       style="fill:#97d442;fill-opacity:1;stroke:none;stroke-linecap:square;stroke-linejoin:miter;stroke-dasharray:none;stroke-opacity:1;paint-order:markers fill stroke"
       x="-9"
       y="17"
       width="1"
       height="1"
       id="25-17-8"
       transform="scale(-1,1)" />
    <path
       d="m 27,18 v 1 1 h -1 v -1 h -1 v -1 h 1 z"
       style="fill:#42941f;stroke-linecap:square;paint-order:markers fill stroke"
       id="path4" />
    <path
       d="m 25,17 v 1 1 h -1 v 1 h -1 v -1 h -1 -1 v 1 1 h 1 v -1 h 1 v 1 1 h 1 v 1 1 h 1 v -1 h 1 v -1 -1 -1 h 1 v -1 h 1 v 1 1 1 h -1 v 1 1 h -1 v 1 1 h -1 -1 -1 v -1 h -1 v -1 h -1 -1 v -1 h -1 -1 v -1 -1 -1 -1 h 1 v -1 h 1 1 v -1 h 1 1 1 z"
       style="fill:#97d442;stroke-linecap:square;paint-order:markers fill stroke"
       id="path100" />
    <rect
       style="fill:#6aba30;fill-opacity:1;stroke:none;stroke-linecap:square;stroke-linejoin:miter;stroke-dasharray:none;stroke-opacity:1;paint-order:markers fill stroke"
       x="-19"
       y="18"
       width="1"
       height="1"
       id="15-18-6"
       transform="scale(-1,1)" />
    <rect
       style="fill:#e0c199;fill-opacity:1;stroke:none;stroke-linecap:square;stroke-linejoin:miter;stroke-dasharray:none;stroke-opacity:1;paint-order:markers fill stroke"
       x="-14"
       y="18"
       width="1"
       height="1"
       id="20-18-0"
       transform="scale(-1,1)" />
    <path
       d="m 11,18 v 1 H 10 9 v -1 h 1 z"
       style="fill:#97d442;stroke-linecap:square;paint-order:markers fill stroke"
       id="path28" />
    <rect
       style="fill:#db517b;fill-opacity:1;stroke:none;stroke-linecap:square;stroke-linejoin:miter;stroke-dasharray:none;stroke-opacity:1;paint-order:markers fill stroke"
       x="-7"
       y="18"
       width="1"
       height="1"
       id="27-18"
       transform="scale(-1,1)" />
    <rect
       style="fill:#97d442;fill-opacity:1;stroke:none;stroke-linecap:square;stroke-linejoin:miter;stroke-dasharray:none;stroke-opacity:1;paint-order:markers fill stroke"
       x="-26"
       y="19"
       width="1"
       height="1"
       id="8-19-4"
       transform="scale(-1,1)" />
    <path
       d="m 23,19 v 1 h -1 v 1 h -1 v -1 -1 h 1 z"
       style="fill:#42941f;stroke-linecap:square;paint-order:markers fill stroke"
       id="path3" />
    <rect
       style="fill:#e0a08b;fill-opacity:1;stroke:none;stroke-linecap:square;stroke-linejoin:miter;stroke-dasharray:none;stroke-opacity:1;paint-order:markers fill stroke"
       x="-14"
       y="19"
       width="1"
       height="1"
       id="20-19-8"
       transform="scale(-1,1)" />
    <path
       d="m 7,19 v 1 1 1 H 6 V 21 H 5 v -1 h 1 v -1 z"
       style="fill:#f57d9b;stroke-linecap:square;paint-order:markers fill stroke"
       id="path30" />
    <path
       d="m 15,20 v 1 1 h -1 v -1 -1 z"
       style="fill:#e0a08b;stroke-linecap:square;paint-order:markers fill stroke"
       id="path34" />
    <rect
       style="fill:#db517b;fill-opacity:1;stroke:none;stroke-linecap:square;stroke-linejoin:miter;stroke-dasharray:none;stroke-opacity:1;paint-order:markers fill stroke"
       x="-8"
       y="20"
       width="1"
       height="1"
       id="26-20-8"
       transform="scale(-1,1)" />
    <path
       d="m 13,18 v 1 1 h 1 v 1 1 h -1 v -1 h -1 v -1 -1 -1 z"
       style="fill:#6aba30;stroke-linecap:square;paint-order:markers fill stroke"
       id="path33" />
    <rect
       style="fill:#c23275;fill-opacity:1;stroke:none;stroke-linecap:square;stroke-linejoin:miter;stroke-dasharray:none;stroke-opacity:1;paint-order:markers fill stroke"
       x="-8"
       y="21"
       width="1"
       height="1"
       id="26-21"
       transform="scale(-1,1)" />
    <rect
       style="fill:#db517b;fill-opacity:1;stroke:none;stroke-linecap:square;stroke-linejoin:miter;stroke-dasharray:none;stroke-opacity:1;paint-order:markers fill stroke"
       x="-6"
       y="21"
       width="1"
       height="1"
       id="28-21"
       transform="scale(-1,1)" />
    <rect
       style="fill:#6aba30;fill-opacity:1;stroke:none;stroke-linecap:square;stroke-linejoin:miter;stroke-dasharray:none;stroke-opacity:1;paint-order:markers fill stroke"
       x="-28"
       y="22"
       width="1"
       height="1"
       id="6-22-8"
       transform="scale(-1,1)" />
    <path
       d="m 14,22 v 1 h 1 1 1 v 1 h 1 v 1 h 1 v -1 h 1 v 1 1 h -1 -1 -1 v -1 h -1 -1 v -1 h -1 -1 v -1 -1 z"
       style="fill:#ede551;stroke-linecap:square;paint-order:markers fill stroke"
       id="path14" />
    <rect
       style="fill:#c23275;fill-opacity:1;stroke:none;stroke-linecap:square;stroke-linejoin:miter;stroke-dasharray:none;stroke-opacity:1;paint-order:markers fill stroke"
       x="-7"
       y="22"
       width="1"
       height="1"
       id="27-22"
       transform="scale(-1,1)" />
    <path
       d="m 25,19 v 1 h 1 v 1 1 1 h -1 v 1 h -1 v -1 -1 h -1 v -1 -1 h 1 v -1 z"
       style="fill:#c3eb54;stroke-linecap:square;paint-order:markers fill stroke"
       id="path2" />
    <rect
       style="fill:#6aba30;fill-opacity:1;stroke:none;stroke-linecap:square;stroke-linejoin:miter;stroke-dasharray:none;stroke-opacity:1;paint-order:markers fill stroke"
       x="-27"
       y="24"
       width="1"
       height="1"
       id="7-24-9"
       transform="scale(-1,1)" />
    <path
       d="m 22,24 v 1 h -1 v 1 h -1 v -1 -1 h 1 z"
       style="fill:#6aba30;stroke-linecap:square;paint-order:markers fill stroke"
       id="path11" />
    <path
       d="m 18,19 v 1 1 1 1 h 1 1 v 1 h -1 v 1 h -1 v -1 h -1 v -1 h -1 -1 -1 v -1 h 1 v -1 h 1 v -1 h 1 v -1 z"
       style="fill:#6aba30;stroke-linecap:square;paint-order:markers fill stroke"
       id="path10" />
    <rect
       style="fill:#6aba30;fill-opacity:1;stroke:none;stroke-linecap:square;stroke-linejoin:miter;stroke-dasharray:none;stroke-opacity:1;paint-order:markers fill stroke"
       x="-23"
       y="25"
       width="1"
       height="1"
       id="11-25"
       transform="scale(-1,1)" />
    <path
       d="m 22,25 v 1 h 1 v 1 h -1 -1 -1 v -1 h 1 v -1 z"
       style="fill:#ede551;stroke-linecap:square;paint-order:markers fill stroke"
       id="path13" />
    <path
       d="m 25,26 v 1 h -1 -1 v -1 h 1 z"
       style="fill:#6aba30;stroke-linecap:square;paint-order:markers fill stroke"
       id="path12" />
    <rect
       style="display:inline;fill:#e0c199;fill-opacity:1;stroke:none;stroke-linecap:square;stroke-linejoin:miter;stroke-dasharray:none;stroke-opacity:1;paint-order:markers fill stroke"
       x="-22"
       y="5"
       width="1"
       height="1"
       id="11-4"
       transform="scale(-1,1)" />
    <rect
       style="display:inline;fill:#e0c199;fill-opacity:1;stroke:none;stroke-linecap:square;stroke-linejoin:miter;stroke-dasharray:none;stroke-opacity:1;paint-order:markers fill stroke"
       x="-23"
       y="6"
       width="1"
       height="1"
       id="10-5-7"
       transform="scale(-1,1)" />
    <path
       d="m 25,4 v 1 1 h 1 V 7 8 H 25 V 7 H 24 V 6 5 4 Z"
       style="display:inline;fill:#cf406b;stroke-linecap:square;paint-order:markers fill stroke"
       id="path40" />
    <path
       d="m 25,7 v 1 h 1 v 1 1 h -1 -1 v 1 H 23 V 10 H 22 21 V 9 h 1 V 8 h 1 v 1 h 1 V 8 7 Z"
       style="display:inline;fill:#f7f0c8;stroke-linecap:square;paint-order:markers fill stroke"
       id="path43" />
    <path
       d="m 21,5 v 1 h 1 v 1 h 1 V 6 h 1 V 7 8 9 H 23 V 8 H 22 V 9 H 21 V 8 7 H 20 V 6 H 19 V 5 h 1 z"
       style="display:inline;fill:#e3d9af;stroke-linecap:square;paint-order:markers fill stroke"
       id="path44" />
    <rect
       style="display:inline;fill:#f7f0c8;fill-opacity:1;stroke:none;stroke-linecap:square;stroke-linejoin:miter;stroke-dasharray:none;stroke-opacity:1;paint-order:markers fill stroke"
       x="-27"
       y="10"
       width="1"
       height="1"
       id="6-9-7"
       transform="scale(-1,1)" />
    <path
       d="m 28,9 v 1 h 1 v 1 1 h -1 v 1 1 h -1 v -1 h -1 -1 v -1 h -1 v -1 -1 h 1 1 v 1 h 1 V 10 H 26 V 9 h 1 z"
       style="display:inline;fill:#e3d9af;stroke-linecap:square;paint-order:markers fill stroke"
       id="path42" />
    <rect
       style="display:inline;fill:#e0c199;fill-opacity:1;stroke:none;stroke-linecap:square;stroke-linejoin:miter;stroke-dasharray:none;stroke-opacity:1;paint-order:markers fill stroke"
       x="-24"
       y="11"
       width="1"
       height="1"
       id="9-10-6"
       transform="scale(-1,1)" />
    <rect
       style="display:inline;fill:#e0c199;fill-opacity:1;stroke:none;stroke-linecap:square;stroke-linejoin:miter;stroke-dasharray:none;stroke-opacity:1;paint-order:markers fill stroke"
       x="-25"
       y="12"
       width="1"
       height="1"
       id="8-11-4"
       transform="scale(-1,1)" />
    <path
       d="m 30,12 v 1 1 h -1 v -1 -1 z"
       style="display:inline;fill:#e3d9af;stroke-linecap:square;paint-order:markers fill stroke"
       id="path62" />
    <rect
       style="display:inline;fill:#e0c199;fill-opacity:1;stroke:none;stroke-linecap:square;stroke-linejoin:miter;stroke-dasharray:none;stroke-opacity:1;paint-order:markers fill stroke"
       x="-27"
       y="13"
       width="1"
       height="1"
       id="6-12-3"
       transform="scale(-1,1)" />
    <path
       d="m 16,10 v 1 h 1 v 1 1 1 h -1 v -1 h -1 v 1 1 h -1 -1 v -1 -1 -1 h 1 v -1 h 1 v -1 z"
       style="display:inline;fill:#e3d9af;stroke-linecap:square;paint-order:markers fill stroke"
       id="path49" />
    <path
       d="m 30,16 v 1 h -1 v -1 z"
       style="display:inline;fill:#e0a08b;stroke-linecap:square;paint-order:markers fill stroke"
       id="path32" />
    <path
       d="m 29,17 v 1 1 h -1 v -1 -1 z"
       style="display:inline;fill:#e0a08b;stroke-linecap:square;paint-order:markers fill stroke"
       id="path37" />
    <path
       d="m 27,17 v 1 h -1 v -1 z"
       style="display:inline;fill:#e0a08b;stroke-linecap:square;paint-order:markers fill stroke"
       id="path31" />
    <path
       d="m 8,17 v 1 1 1 H 7 v -1 -1 -1 z"
       style="display:inline;fill:#e0c199;stroke-linecap:square;paint-order:markers fill stroke"
       id="path57" />
    <path
       d="m 29,12 v 1 1 h 1 v 1 1 h -1 v 1 h -1 v 1 1 h -1 v -1 -1 -1 h -1 v -1 h 1 v -1 h 1 v -1 -1 z"
       style="display:inline;fill:#e0c199;stroke-linecap:square;paint-order:markers fill stroke"
       id="path39" />
    <path
       d="m 30,19 v 1 1 1 h -1 v 1 1 1 1 h -1 v -1 h -1 v -1 -1 h 1 v -1 -1 -1 h 1 v -1 z"
       style="display:inline;fill:#e0a08b;stroke-linecap:square;paint-order:markers fill stroke"
       id="path38" />
    <rect
       style="display:inline;fill:#e0c199;fill-opacity:1;stroke:none;stroke-linecap:square;stroke-linejoin:miter;stroke-dasharray:none;stroke-opacity:1;paint-order:markers fill stroke"
       x="-29"
       y="19"
       width="1"
       height="1"
       id="4-18-0"
       transform="scale(-1,1)" />
    <path
       d="m 9,18 v 1 h 1 v 1 H 9 v 1 H 8 v -1 -1 -1 z"
       style="display:inline;fill:#e3d9af;stroke-linecap:square;paint-order:markers fill stroke"
       id="path54" />
    <rect
       style="display:inline;fill:#e0a08b;fill-opacity:1;stroke:none;stroke-linecap:square;stroke-linejoin:miter;stroke-dasharray:none;stroke-opacity:1;paint-order:markers fill stroke"
       x="-13"
       y="22"
       width="1"
       height="1"
       id="20-21-3"
       transform="scale(-1,1)" />
    <path
       d="m 12,18 v 1 1 1 h 1 v 1 h -1 v 1 h -1 v -1 -1 h -1 v 1 1 H 9 v 1 H 8 v -1 -1 -1 h 1 v -1 h 1 v -1 h 1 v -1 z"
       style="display:inline;fill:#e0c199;stroke-linecap:square;paint-order:markers fill stroke"
       id="path60" />
    <path
       d="m 11,21 v 1 1 h 1 v 1 1 h 1 v 1 1 h -1 v 1 h -1 v -1 -1 h -1 v 1 H 9 8 V 26 H 7 v -1 -1 -1 h 1 v 1 h 1 v -1 h 1 v -1 -1 z"
       style="display:inline;fill:#e0a08b;stroke-linecap:square;paint-order:markers fill stroke"
       id="path61" />
    <rect
       style="display:inline;fill:#97d442;fill-opacity:1;stroke:none;stroke-linecap:square;stroke-linejoin:miter;stroke-dasharray:none;stroke-opacity:1;paint-order:markers fill stroke"
       x="-23"
       y="10"
       width="1"
       height="1"
       id="10-9-0"
       transform="scale(-1,1)" />
    <rect
       style="display:inline;fill:#e0c199;fill-opacity:1;stroke:none;stroke-linecap:square;stroke-linejoin:miter;stroke-dasharray:none;stroke-opacity:1;paint-order:markers fill stroke"
       x="-19"
       y="10"
       width="1"
       height="1"
       id="14-9-9"
       transform="scale(-1,1)" />
    <rect
       style="display:inline;fill:#e0c199;fill-opacity:1;stroke:none;stroke-linecap:square;stroke-linejoin:miter;stroke-dasharray:none;stroke-opacity:1;paint-order:markers fill stroke"
       x="-18"
       y="11"
       width="1"
       height="1"
       id="14-9-4"
       transform="scale(-1,1)" />
    <rect
       style="display:inline;fill:#e3d9af;fill-opacity:1;stroke:none;stroke-linecap:square;stroke-linejoin:miter;stroke-dasharray:none;stroke-opacity:1;paint-order:markers fill stroke"
       x="-18"
       y="10"
       width="1"
       height="1"
       id="15-9-2"
       transform="scale(-1,1)" />
    <path
       d="m 23,15 v 1 1 h -1 -1 v -1 -1 h 1 z"
       style="fill:#6aba30;stroke-linecap:square;paint-order:markers fill stroke"
       id="path97" />
    <path
       d="m 21,14 v 1 h -1 -1 v -1 h 1 z"
       style="display:inline;fill:#f5f5f5;stroke-linecap:square;paint-order:markers fill stroke"
       id="path107" />
    <path
       d="m 21,15 v 1 h -1 v 1 h 1 v 1 h -1 -1 v -1 -1 -1 h 1 z"
       style="fill:#cf406b;stroke-linecap:square;paint-order:markers fill stroke"
       id="path108" />
    <path
       d="m 19,15 v 1 1 1 h -1 v -1 -1 -1 z"
       style="fill:#f5f5f5;stroke-linecap:square;paint-order:markers fill stroke"
       id="path106" />
    <rect
       style="fill:#f5f5f5;fill-opacity:1;stroke:none;stroke-linecap:square;stroke-linejoin:miter;stroke-dasharray:none;stroke-opacity:1;paint-order:markers fill stroke"
       x="-21"
       y="16"
       width="1"
       height="1"
       id="12-15-5"
       transform="scale(-1,1)" />
    <rect
       style="fill:#42941f;fill-opacity:1;stroke:none;stroke-linecap:square;stroke-linejoin:miter;stroke-dasharray:none;stroke-opacity:1;paint-order:markers fill stroke"
       x="-19"
       y="14"
       width="1"
       height="1"
       id="14-13-4"
       transform="scale(-1,1)" />
    <path
       d="m 26,13 v 1 h -1 -1 v -1 h 1 z"
       style="fill:#f5f5f5;stroke-linecap:square;paint-order:markers fill stroke"
       id="path112" />
    <path
       d="m 26,14 v 1 h -1 v 1 h 1 v 1 h -1 -1 v -1 -1 -1 h 1 z"
       style="fill:#cf406b;stroke-linecap:square;paint-order:markers fill stroke"
       id="path114" />
    <path
       d="m 24,14 v 1 1 1 h -1 v -1 -1 -1 z"
       style="fill:#f5f5f5;stroke-linecap:square;paint-order:markers fill stroke"
       id="path109" />
    <rect
       style="fill:#f5f5f5;fill-opacity:1;stroke:none;stroke-linecap:square;stroke-linejoin:miter;stroke-dasharray:none;stroke-opacity:1;paint-order:markers fill stroke"
       x="-26"
       y="15"
       width="1"
       height="1"
       id="7-14-0"
       transform="scale(-1,1)" />
    <rect
       style="fill:#42941f;fill-opacity:1;stroke:none;stroke-linecap:square;stroke-linejoin:miter;stroke-dasharray:none;stroke-opacity:1;paint-order:markers fill stroke"
       x="-27"
       y="14"
       width="1"
       height="1"
       id="6-13-5"
       transform="scale(-1,1)" />
    <path
       d="m 17,16 v 1 h -1 v 1 h 1 1 v 1 h -1 v 1 h -1 v 1 h -1 v -1 h -1 v -1 -1 h 1 v -1 -1 h 1 z"
       style="fill:#97d442;stroke-linecap:square;paint-order:markers fill stroke"
       id="path103" />
  </g>
</svg>
